<svg width="240" height="240" viewBox="0 0 240 240" fill="none" xmlns="http://www.w3.org/2000/svg">
<path fill-rule="evenodd" clip-rule="evenodd" d="M110.998 68C103.2 68.9865 95.7957 71.2379 88.998 74.5421V118C88.998 124.075 93.9229 129 99.998 129V129C106.073 129 110.998 124.075 110.998 118V68ZM88.998 171.998V162C88.998 155.925 93.9229 151 99.998 151V151C106.073 151 110.998 155.925 110.998 162V171.998H88.998ZM150.998 74.5421C144.2 71.2379 136.796 68.9865 128.998 68V95C128.998 101.075 133.923 106 139.998 106V106C146.073 106 150.998 101.075 150.998 95V74.5421ZM150.998 139C150.998 132.925 146.073 128 139.998 128V128C133.923 128 128.998 132.925 128.998 139V171.998H150.998V139ZM168.998 171.998H180.998C186.521 171.998 190.998 167.521 190.998 161.998V138.435C190.998 118.223 182.553 99.9841 168.998 87.0539V171.998ZM70.998 87.0539C57.4435 99.9841 48.998 118.223 48.998 138.435V161.998C48.998 167.521 53.4752 171.998 58.998 171.998H70.998V87.0539Z" fill="#9155FD"/>
</svg>
