<svg width="580" height="580" viewBox="0 0 580 580" fill="none" xmlns="http://www.w3.org/2000/svg">
<path fill-rule="evenodd" clip-rule="evenodd" d="M290.287 290.286L433.718 213.163C447.627 205.684 459.038 194.29 466.539 180.393C495.385 126.946 457.115 62.3311 396.38 62.2638C365.004 62.2291 335.162 62.2284 313.518 62.2284C303.678 61.3965 277.84 61.7903 268.065 62.2284C225.709 64.1266 184.506 77.7999 149.216 101.99C105.78 131.764 73.9737 175.639 59.1859 226.18C44.3981 276.722 47.5383 330.821 68.0746 379.312C88.6108 427.803 125.28 467.703 171.869 492.251C218.457 516.8 272.1 524.486 323.708 514.008C375.315 503.531 421.713 475.534 455.04 434.761C484.558 398.649 502.213 354.482 505.864 308.269C506.647 298.359 498.514 290.286 488.573 290.286H290.287ZM313.518 126.228C311.718 126.228 309.919 126.153 308.126 126.001C308.128 126.001 308.127 126.001 308.122 126.001C308.067 125.997 307.578 125.961 306.533 125.918C305.46 125.875 304.097 125.835 302.455 125.805C299.161 125.744 295.243 125.728 291.121 125.751C282.721 125.798 274.709 125.995 270.93 126.164C240.449 127.53 210.796 137.371 185.401 154.779C154.142 176.206 131.253 207.78 120.611 244.152C109.969 280.524 112.228 319.457 127.007 354.354C141.786 389.251 168.175 417.965 201.703 435.631C235.23 453.297 273.834 458.828 310.974 451.288C348.113 443.748 381.504 423.6 405.487 394.257C415.456 382.062 423.545 368.589 429.594 354.286H290.287C260.96 354.286 235.385 334.353 228.224 305.914C221.063 277.475 234.148 247.807 259.977 233.918L403.408 156.795C406.294 155.243 408.662 152.879 410.218 149.996C416.214 138.886 408.308 126.277 396.309 126.264C364.973 126.229 335.163 126.228 313.518 126.228Z" fill="url(#paint0_linear_404_274)"/>
<defs>
<linearGradient id="paint0_linear_404_274" x1="290" y1="44.5" x2="290" y2="624" gradientUnits="userSpaceOnUse">
<stop offset="0.385164" stop-color="#97DA67"/>
<stop offset="0.912633" stop-color="#98C379"/>
</linearGradient>
</defs>
</svg>
